<?xml version="1.0" encoding="UTF-8"?>
<svg id="Layer_2" data-name="Layer 2" xmlns="http://www.w3.org/2000/svg" width="527.13" height="725.82" viewBox="0 0 527.13 725.82">
  <defs>
    <style>
      .cls-1 {
        fill: #fff;
        stroke: #fff;
        stroke-miterlimit: 10;
        stroke-width: 18px;
      }
    </style>
  </defs>
  <g id="Layer_1-2" data-name="Layer 1">
    <path class="cls-1" d="M290.16,715.29c-7.73,2.41-15.84,1.89-22.82-.97-7.65-3.17-8.08-10.26-11.45-18.22l-68.37-148.92-88.3,76.14c-12.29,10.6-25.67,18.06-38.03,21.24-9.5,2.45-18.62,2.41-26.71-.43-8.93-3.17-16.11-9.48-20.66-19.37-3.61-7.83-5.38-17.91-4.66-30.42L40.06,30.33c0-.44.06-.88.11-1.26.41-3.49,1.51-6.82,3.33-9.73,2.05-3.38,5.04-6.3,8.67-8.25,1.56-.9,3.17-1.41,4.86-1.62,3.35-.66,6.72-.61,9.87.2,3.05.74,5.98,2.06,8.54,4,.87.56,1.72,1.22,2.45,1.98l419.55,376.75c9.29,8.36,15.15,16.71,18.18,24.8,3.8,10.18,3.15,19.71-.97,28.29-3.68,7.75-10.17,14.19-18.57,19.17-10.92,6.46-25.68,10.65-41.93,11.82-.17.03-.39,0-.56.04l-115.74,8.43,61.79,150.44c3.26,7.95,2.94,16.65-.22,24.25-3.08,7.39-8.85,13.82-16.63,17.49-.3.18-.65.3-1,.42l-89.73,37.13c-.59.25-1.22.45-1.91.63h0ZM278.57,687.05c.79.33,1.6.43,2.4.26.29-.13.59-.25.93-.32l88.55-36.63c.83-.44,1.43-1.19,1.82-2.03.26-.68.34-1.34.18-1.8l-69.54-169.21-1-4.56c-.59-1.4.12,1.62,0,0-.59-8.1,5.54-15.14,13.63-15.73l136-9.9c.17-.03.34-.07.56-.04,11.73-.88,21.93-3.63,29.07-7.83,3.48-2.08,5.92-4.25,7-6.54.68-1.4.7-3.22-.12-5.38-1.39-3.72-4.64-8.02-10.17-13.01L68.65,46.99l-30.03,549.08c-.43,7.46.34,12.87,1.98,16.41.94,2.06,2.27,3.34,3.75,3.87,2.37.87,5.66.69,9.55-.29,7.96-2.05,17.11-7.3,26.04-15.03l103.71-89.42h0c1.18-1,2.51-1.83,3.97-2.46,7.49-3.1,16.15.42,19.24,7.96l70.31,168.81c.27.48.71.87,1.4,1.12h0ZM281.84,686.99h0"/>
  </g>
</svg>