<?xml version="1.0" encoding="UTF-8"?>
<svg id="Layer_1" data-name="Layer 1" xmlns="http://www.w3.org/2000/svg" width="1025" height="1025" viewBox="0 0 1025 1025">
  <defs>
    <style>
      .cls-1 {
        fill: none;
        stroke-linecap: round;
        stroke-linejoin: round;
        stroke-width: 40px;
      }

      .cls-1, .cls-2 {
        stroke: #fff;
      }

      .cls-3 {
        fill: #3264b2;
        stroke: #000;
      }

      .cls-3, .cls-2 {
        stroke-miterlimit: 10;
      }

      .cls-2 {
        fill: #fff;
        stroke-width: 18px;
      }
    </style>
  </defs>
  <rect class="cls-3" x=".5" y=".5" width="1024" height="1024" rx="228" ry="228"/>
  <path class="cls-2" d="M435.67826,884.53773c-7.72747,2.40715-15.84236,1.88779-22.81893-.96936-7.65432-3.16789-8.0839-10.25518-11.45488-18.2206l-68.36637-148.91945-88.30186,76.13881c-12.293,10.59559-25.66555,18.06266-38.02885,21.23959-9.50242,2.44906-18.62016,2.40542-26.70517-.43232-8.92581-3.17003-16.10928-9.48276-20.66344-19.37394-3.60991-7.83112-5.375-17.90668-4.66159-30.41944l30.89999-564.00748c.0031-.44194.06055-.8767.11082-1.25712.40524-3.48527,1.50979-6.82284,3.33209-9.7338,2.04996-3.37853,5.03504-6.30172,8.66606-8.25486,1.55659-.90019,3.17161-1.40561,4.85941-1.62494,3.34998-.66322,6.7153-.60559,9.8714.19851,3.05459.73539,5.97583,2.0614,8.53918,4.00364.86642.55684,1.71847,1.22237,2.44748,1.98223l419.55209,376.75232c9.29051,8.36056,15.1542,16.71065,18.17756,24.79602,3.79741,10.17821,3.1457,19.71328-.97382,28.29246-3.67856,7.75272-10.16964,14.1938-18.56789,19.16645-10.9177,6.4644-25.68149,10.65117-41.9268,11.82218-.17021.03281-.3876.00409-.5578.03686l-115.73807,8.42771,61.79086,150.43642c3.26229,7.95106,2.94286,16.64531-.21785,24.24528-3.07763,7.3898-8.84788,13.81553-16.63182,17.48695-.30047.18148-.64807.30142-.99567.42137l-89.72782,37.13401c-.58657.25424-1.22028.44699-1.90831.63252h0ZM424.09311,856.29992c.78646.3251,1.60162.43282,2.39836.26161.29326-.12712.58653-.25425.92697-.31987l88.55476-36.62548c.83264-.44291,1.42948-1.19346,1.81608-2.0271.25638-.68493.34256-1.33709.18262-1.80058l-69.53956-169.20965-1.00153-4.55588c-.58848-1.40481.11781,1.6191,0,0-.5891-8.09546,5.53905-15.13747,13.63453-15.72655l136.00395-9.89686c.17021-.03281.34042-.06559.5578-.03686,11.72843-.88318,21.93325-3.62647,29.06817-7.82602,3.48235-2.08337,5.92496-4.24886,7.00175-6.53948.68297-1.40267.70261-3.22479-.11862-5.3792-1.38813-3.72224-4.63528-8.02187-10.169-13.01075L214.17419,216.2358l-30.03363,549.08199c-.43317,7.46275.34476,12.87376,1.97901,16.40734.94426,2.06005,2.26795,3.34087,3.74653,3.868,2.37372.86659,5.65907.69247,9.54842-.28651,7.9561-2.04515,17.1111-7.30485,26.0386-15.02748l103.71428-89.4187h0c1.18335-1.0048,2.50821-1.82503,3.97455-2.46069,7.48756-3.10235,16.14573.41937,19.24092,7.96129l70.31068,168.81392c.26859.47785.71461.86854,1.39955,1.12496h0ZM427.36411,856.23448h0"/>
  <path class="cls-1" d="M680.00784,532.15703c0-60.51854-27.33318-99.04122-93.44677-99.04122"/>
  <path class="cls-1" d="M783.80195,532.15703c0-127.73829-57.69295-209.04927-197.24088-209.04926"/>
  <path class="cls-1" d="M892.47715,532.15703c0-198.11915-89.48045-324.23061-305.91608-324.23061"/>
  <path class="cls-1" d="M991.09759,532.15703c0-261.98829-118.32693-428.75525-404.53652-428.75524"/>
</svg>